<svg version="1.2" xmlns="http://www.w3.org/2000/svg" viewBox="0 0 470 470" width="16" height="16">
	<title>menu-svg</title>
	<style>
		.s0 { fill: #000000 } 
	</style>
	<g id="SVGRepo_bgCarrier">
	</g>
	<g id="SVGRepo_tracerCarrier">
	</g>
	<g id="SVGRepo_iconCarrier">
		<g id="Layer">
			<path id="Layer" fill-rule="evenodd" class="s0" d="m417.5 37.5v395c0 20.7-16.8 37.5-37.5 37.5h-290c-20.7 0-37.5-16.8-37.5-37.5v-395c0-20.7 16.8-37.5 37.5-37.5h290c20.7 0 37.5 16.8 37.5 37.5zm-15 0c0-12.4-10.1-22.5-22.5-22.5h-67.5v47.5c0 12.4-10.1 22.5-22.5 22.5h-110c-12.4 0-22.5-10.1-22.5-22.5v-47.5h-67.5c-12.4 0-22.5 10.1-22.5 22.5v395c0 12.4 10.1 22.5 22.5 22.5h290c12.4 0 22.5-10.1 22.5-22.5zm-105-22.5h-125v15h125zm-125 47.5c0 4.1 3.4 7.5 7.5 7.5h110c4.1 0 7.5-3.4 7.5-7.5v-17.5h-125z"/>
			<path id="Layer" class="s0" d="m380 30h-45c-4.1 0-7.5 3.4-7.5 7.5 0 4.1 3.4 7.5 7.5 7.5h37.5v380h-275v-380h37.5c4.1 0 7.5-3.4 7.5-7.5 0-4.1-3.4-7.5-7.5-7.5h-45c-4.1 0-7.5 3.4-7.5 7.5v395c0 4.1 3.4 7.5 7.5 7.5h290c4.1 0 7.5-3.4 7.5-7.5v-395c0-4.1-3.4-7.5-7.5-7.5z"/>
			<path id="Layer" fill-rule="evenodd" class="s0" d="m162.5 258v-60c0-4.1 3.4-7.5 7.5-7.5 4.1 0 7.5 3.4 7.5 7.5v40.5h15v-40.5c0-4.1 3.4-7.5 7.5-7.5 4.1 0 7.5 3.4 7.5 7.5v40.5h15v-40.5c0-4.1 3.4-7.5 7.5-7.5 4.1 0 7.5 3.4 7.5 7.5v60c0 18.1-12.9 33.3-30 36.8v77.2c0 4.1-3.4 7.5-7.5 7.5-4.1 0-7.5-3.4-7.5-7.5v-77.3c-17.1-3.4-30-18.6-30-36.7zm15-4.5v4.5c0 12.4 10.1 22.5 22.5 22.5 12.4 0 22.5-10.1 22.5-22.5v-4.5z"/>
			<path id="Layer" fill-rule="evenodd" class="s0" d="m292.5 372v-49.5h-12.5c-15.2 0-27.5-12.3-27.5-27.5v-77c0-15.2 12.3-27.5 27.5-27.5 15.2 0 27.5 12.3 27.5 27.5v154c0 4.1-3.4 7.5-7.5 7.5-4.1 0-7.5-3.4-7.5-7.5zm0-64.5v-89.5c0-6.9-5.6-12.5-12.5-12.5-6.9 0-12.5 5.6-12.5 12.5v77c0 6.9 5.6 12.5 12.5 12.5z"/>
			<path id="Layer" class="s0" d="m170 165.5c1.8 0 3.6-0.7 5.1-2l16.6-15.3 16.5 15.3c2.9 2.7 7.3 2.7 10.2 0l16.6-15.3 16.6 15.3c2.9 2.7 7.3 2.7 10.2 0l16.5-15.3 16.6 15.3c3.1 2.8 7.8 2.6 10.6-0.4 2.8-3.1 2.6-7.8-0.4-10.6l-21.7-20c-2.9-2.7-7.3-2.7-10.2 0l-16.5 15.3-16.6-15.3c-2.9-2.7-7.3-2.7-10.2 0l-16.6 15.3-16.5-15.3c-2.9-2.7-7.3-2.7-10.2 0l-21.7 20c-3 2.8-3.2 7.5-0.4 10.6 1.5 1.6 3.5 2.4 5.5 2.4z"/>
		</g>
	</g>
</svg>